<svg width="252" height="251" viewBox="0 0 252 251" fill="none" xmlns="http://www.w3.org/2000/svg">
<path fill-rule="evenodd" clip-rule="evenodd" d="M121.697 0.32001C173.616 -0.386893 229.334 19.779 246.098 75.1883C263.351 132.214 233.624 191.182 189.86 225.612C148.884 257.849 94.8866 258.991 54.0917 226.244C12.1957 192.612 -9.86881 133.266 6.53438 78.4501C22.3659 25.5444 72.1079 0.995195 121.697 0.32001Z" fill="#F7F1E4"/>
<path d="M82 83.7379C82.3663 82.9924 82.641 82.1889 83.1111 81.5198C83.6269 80.7576 84.3278 80.1391 85.1478 79.7223C85.9679 79.3054 86.8803 79.1039 87.7994 79.1367H104.114C104.114 78.4431 104.114 77.884 104.114 77.3218C104.157 75.2045 105.335 74.0038 107.453 73.961C109.236 73.9213 111.022 73.961 112.774 73.961C114.462 66.995 118.063 63.7167 123.603 64.0192C128.863 64.3064 132.489 67.9666 133.295 73.961H137.568C141.167 73.961 141.991 74.7646 142.082 78.3637C142.082 78.5867 142.119 78.8067 142.149 79.1489H143.416C148.251 79.1489 153.087 79.1489 157.924 79.1489C161.834 79.1489 164.154 81.4739 164.166 85.4214C164.184 91.0981 164.148 96.7778 164.202 102.458C164.231 103.153 164.474 103.822 164.898 104.373C170.451 111.376 171.998 119.127 169.312 127.667C169.007 128.632 169.15 129.106 169.968 129.711C178.466 136.025 186.941 142.366 195.394 148.733C198.95 151.397 199.973 155.454 198.029 158.989C195.755 163.105 190.501 164.217 186.613 161.339C181.409 157.489 176.235 153.581 171.067 149.701L164.172 144.538V146.087C164.172 154.929 164.172 163.771 164.172 172.613C164.172 174.751 163.623 176.707 161.745 177.853C160.652 178.524 159.404 178.898 158.122 178.94C134.741 179.001 111.361 179.016 87.9826 178.983C84.7868 178.983 82.9493 177.214 82 174.315V163.548C82.6105 163.218 83.1782 162.689 83.8131 162.607C84.7898 162.481 85.4156 163.319 85.4217 164.522C85.44 167.229 85.4217 169.933 85.4217 172.64C85.4217 174.745 86.2031 175.534 88.3244 175.537C111.475 175.537 134.628 175.537 157.783 175.537C159.944 175.537 160.723 174.742 160.723 172.549C160.723 162.678 160.723 152.806 160.723 142.934C160.723 141.302 159.371 140.508 157.948 141.235C149.829 145.38 141.804 145.193 133.874 140.673C132.394 139.824 131.991 138.858 132.62 137.868C133.249 136.878 134.18 136.863 135.611 137.725C143.123 142.24 152.491 141.782 159.233 136.249C166.083 130.633 168.68 123.258 166.391 114.691C164.102 106.124 158.299 100.915 149.53 99.5184C136.484 97.4255 125.02 107.92 125.691 121.131C125.864 124.767 127.016 128.287 129.024 131.321C129.311 131.723 129.57 132.145 129.8 132.583C130.184 133.389 129.931 134.095 129.262 134.608C128.966 134.859 128.588 134.991 128.2 134.978C127.813 134.965 127.444 134.808 127.165 134.538C126.943 134.331 126.747 134.097 126.582 133.841C116.232 119.277 125.3 98.4246 143.013 96.0476C148.837 95.1927 154.772 96.5201 159.679 99.775C159.902 99.9186 160.122 100.081 160.35 100.206C160.45 100.235 160.552 100.251 160.656 100.252C160.68 99.9217 160.726 99.5948 160.726 99.2709C160.726 94.7369 160.726 90.2008 160.726 85.6627C160.726 83.3071 159.99 82.5677 157.674 82.5647H142.07C142.07 83.2338 142.091 83.8632 142.07 84.4895C141.997 86.4143 140.815 87.6609 138.905 87.667C128.356 87.6894 117.808 87.6894 107.261 87.667C105.332 87.667 104.181 86.4449 104.123 84.4895C104.105 83.8784 104.123 83.2918 104.123 82.5677H102.875C98.04 82.5677 93.2041 82.5677 88.3672 82.5677C86.1756 82.5677 85.4308 83.3254 85.4308 85.5344C85.4308 108.518 85.4308 131.502 85.4308 154.486C85.4308 154.831 85.4308 155.173 85.4308 155.515C85.4797 156.478 85.385 157.391 84.3503 157.81C83.3156 158.229 82.6288 157.633 82 156.921V83.7379ZM107.64 77.3738V84.1504H138.651V77.389C136.515 77.389 134.555 77.389 132.583 77.389C130.773 77.3738 129.876 76.4725 129.8 74.6393C129.806 73.9934 129.755 73.3483 129.647 72.7114C128.884 69.2681 125.835 67.1172 122.282 67.4716C118.958 67.8046 116.458 70.6247 116.33 74.1932C116.238 76.7474 115.576 77.386 113.003 77.386L107.64 77.3738ZM174.126 137.083L169.089 143.82C169.184 143.934 169.286 144.043 169.395 144.144C175.841 148.983 182.294 153.814 188.752 158.635C189.338 159.053 190.013 159.326 190.724 159.432C191.633 159.585 192.566 159.427 193.373 158.983C194.181 158.54 194.815 157.837 195.175 156.988C195.573 156.134 195.667 155.168 195.44 154.253C195.213 153.338 194.68 152.528 193.929 151.959C192.055 150.468 190.114 149.063 188.197 147.627C183.548 144.135 178.89 140.652 174.126 137.083ZM166.29 141.825L171.382 135.024L167.588 132.185L162.115 138.696L166.29 141.825Z" fill="black"/>
<path d="M130 119.997C130 115.76 131.684 111.696 134.683 108.697C137.682 105.698 141.751 104.009 145.997 104C150.243 104.01 154.312 105.701 157.312 108.7C160.312 111.699 161.998 115.763 162 120C161.994 124.237 160.307 128.299 157.307 131.298C154.308 134.296 150.24 135.987 145.994 136C141.748 135.989 137.68 134.298 134.682 131.298C131.684 128.298 130 124.234 130 119.997V119.997ZM158.578 120.033C158.582 116.698 157.26 113.497 154.903 111.132C152.546 108.768 149.345 107.432 146.003 107.418C142.661 107.426 139.458 108.758 137.1 111.122C134.742 113.485 133.42 116.686 133.426 120.021C133.433 123.335 134.748 126.511 137.088 128.863C139.427 131.214 142.601 132.55 145.921 132.582C149.265 132.588 152.476 131.271 154.849 128.918C157.221 126.566 158.562 123.371 158.578 120.033V120.033Z" fill="black"/>
<path d="M119.585 163.99H94.5794C94.1984 164.011 93.816 163.999 93.4379 163.953C92.4978 163.783 91.9515 163.244 92.0034 162.411C92.0522 161.634 92.6138 161.146 93.5142 161.029C93.7789 161.006 94.0452 161.001 94.3108 161.013H144.671C144.936 160.996 145.202 160.996 145.467 161.013C146.368 161.127 146.935 161.562 146.993 162.369C147.067 163.226 146.529 163.741 145.605 163.934C145.229 163.987 144.848 164.001 144.469 163.977L119.585 163.99Z" fill="black"/>
<path d="M119.496 152.038H144.551C144.933 152.038 145.42 151.927 145.674 152.085C146.206 152.421 146.931 152.878 146.995 153.332C147.059 153.786 146.515 154.425 146.044 154.805C145.756 155.04 145.108 154.996 144.618 154.996C127.876 154.996 111.135 154.996 94.3926 154.996C93.943 154.996 93.3436 155.043 93.0744 154.829C92.5943 154.444 92.0713 153.894 92.007 153.377C91.9275 152.687 92.53 152.162 93.4139 152.056C93.7931 152.026 94.1742 152.017 94.5547 152.03L119.496 152.038Z" fill="black"/>
<path d="M109.398 97.9853H94.6127C94.1959 98.0056 93.7784 97.9866 93.3643 97.9285C92.4935 97.7686 91.9059 97.0437 92.0125 96.1199C92.0916 95.4092 92.6488 94.7377 93.1147 94.194C93.3247 93.9489 93.8332 94.0057 94.2077 94.0057C104.371 94.0057 114.536 94.0057 124.704 94.0057C124.968 93.9912 125.233 94.0055 125.495 94.0483C126.43 94.258 126.987 94.8976 126.999 96.0417C127.005 96.2979 126.966 96.5527 126.884 96.7904C126.802 97.0282 126.679 97.2438 126.523 97.4242C126.367 97.6046 126.181 97.7458 125.977 97.8393C125.772 97.9327 125.553 97.9764 125.334 97.9676C123.553 98.0209 121.769 97.9924 119.987 97.9924L109.398 97.9853Z" fill="black"/>
<path d="M108.455 146.993C103.859 146.993 99.2631 146.993 94.6657 146.993C94.2449 147.008 93.8237 146.985 93.4062 146.922C93.0177 146.875 92.6584 146.662 92.3995 146.323C92.1407 145.984 92.0011 145.545 92.0086 145.093C91.9658 144.62 92.0841 144.147 92.3383 143.773C92.5924 143.4 92.9624 143.156 93.3694 143.094C93.7455 143.018 94.1275 142.988 94.509 143.005H122.434C122.742 142.993 123.05 143.003 123.356 143.034C124.342 143.172 125.024 144.015 124.999 145.047C124.995 145.304 124.948 145.557 124.859 145.792C124.77 146.027 124.642 146.24 124.483 146.418C124.323 146.595 124.134 146.735 123.928 146.828C123.721 146.921 123.501 146.966 123.279 146.961C121.129 147.021 118.979 146.993 116.847 146.996C114.047 146.999 111.25 146.998 108.455 146.993Z" fill="black"/>
<path d="M107.03 137.995H94.2847C92.8251 137.995 91.9938 137.257 92 136.007C92.0063 134.756 92.8501 134 94.3003 134C102.797 134 111.293 134 119.787 134C120.812 134 121.663 134.296 121.934 135.572C122.247 136.947 121.416 137.992 120.006 137.995C115.681 138.006 111.355 137.995 107.03 137.995Z" fill="black"/>
<path d="M105.931 105.996C102.16 105.996 98.3881 105.996 94.6149 105.996C94.1875 106.004 93.7603 105.974 93.3405 105.905C92.9487 105.853 92.5942 105.678 92.3468 105.415C92.0994 105.152 91.9769 104.82 92.0036 104.484C91.9802 104.13 92.1206 103.783 92.3948 103.515C92.669 103.248 93.0554 103.082 93.4717 103.053C93.8569 103.01 94.2454 102.994 94.6336 103.002H117.389C117.623 103.002 117.857 103.002 118.088 103.002C119.3 103.068 120.006 103.62 120 104.492C119.994 105.365 119.288 105.94 118.07 105.977C116.673 106.019 115.258 105.99 113.872 105.99L105.931 105.996Z" fill="black"/>
<path d="M105.524 126.002C109.288 126.002 113.05 126.002 116.81 126.002C118.251 126.002 119.024 126.556 118.999 127.535C118.975 128.468 118.208 129 116.843 129C109.279 129 101.716 129 94.156 129C92.8193 129 92 128.422 92 127.511C92 126.599 92.7916 126.005 94.1252 126.002C97.9229 125.997 101.724 126.002 105.524 126.002Z" fill="black"/>
<path d="M105.534 117.011H116.469C116.853 116.998 117.237 117.013 117.618 117.056C117.986 117.094 118.325 117.245 118.575 117.482C118.824 117.719 118.967 118.026 118.976 118.346C119.041 118.663 118.973 118.989 118.782 119.264C118.592 119.54 118.294 119.747 117.941 119.848C117.58 119.956 117.199 120.007 116.817 119.997C109.297 119.997 101.776 119.997 94.2532 119.997C94.0239 120.005 93.7941 119.996 93.5665 119.97C92.6118 119.826 92.0544 119.33 92.0021 118.493C91.9559 117.715 92.6857 117.075 93.6774 117.027C94.6012 116.984 95.5251 117.005 96.449 117.005L105.534 117.011Z" fill="black"/>
</svg>
