<svg width="285" height="249" viewBox="0 0 285 249" fill="none" xmlns="http://www.w3.org/2000/svg">
<path fill-rule="evenodd" clip-rule="evenodd" d="M155.714 1.80166C197.783 3.95208 235.332 27.0519 256.103 79.187C266.097 130.144 273.868 186.734 231.056 220.676C182.106 259.484 102.301 256.395 61.561 220.676C18.8872 183.262 6.30867 113.201 35.9563 52.5483C61.8299 -0.383631 105.116 -0.784738 155.714 1.80166Z" fill="#E1ECF7"/>
<path d="M152.153 69.0001C154.237 69.2775 156.328 69.4915 158.396 69.8456C167.332 71.3833 175.337 75.0531 182.447 80.6358C191.427 87.6821 197.523 96.718 200.753 107.667C203.22 115.883 203.663 124.574 202.045 132.999C199.232 147.694 191.596 159.314 179.259 167.715C169.223 174.556 158.027 177.594 145.867 176.905C136.349 176.403 127.145 173.334 119.23 168.022C118.464 167.512 117.91 167.451 117.08 167.914C111.954 170.754 106.796 173.533 101.632 176.31C99.321 177.554 96.9941 177.047 95.7026 175.052C95.4412 174.603 95.2066 174.139 95 173.663V171.763C95.7396 170.384 96.48 169.006 97.2212 167.628C98.806 164.692 100.391 161.758 101.975 158.825C102.358 158.117 102.939 157.541 103.734 157.842C104.308 158.106 104.76 158.578 105 159.163C105.145 159.541 104.831 160.167 104.593 160.611C102.58 164.394 100.548 168.166 98.497 171.927C98.1906 172.492 97.9688 173.026 98.5366 173.544C99.1388 174.099 99.7145 173.753 100.274 173.451C103.333 171.797 106.389 170.141 109.442 168.482C111.882 167.161 114.349 165.892 116.748 164.503C117.875 163.847 118.776 163.879 119.835 164.632C124.992 168.323 130.822 170.966 136.995 172.413C148.838 175.182 160.348 174.128 171.264 168.714C185.041 161.866 194.282 150.967 198.062 136.042C202.816 117.284 198.16 100.729 184.639 86.9001C176.314 78.3821 165.979 73.5392 154.12 72.4903C136.902 70.9711 122.318 76.5934 110.805 89.6135C104.162 97.1143 100.127 105.936 98.6739 115.833C96.8251 128.365 99.4451 139.995 106.352 150.637C106.79 151.316 107.258 151.974 107.688 152.658C108.317 153.662 108.201 154.492 107.385 155.057C106.611 155.586 105.826 155.419 105.14 154.471C101.202 149.101 98.3574 143.011 96.767 136.544C96.0169 133.453 95.7105 130.254 95.1823 127.104C95.1321 126.8 95.0634 126.499 95.0027 126.195V119.855C95.0608 119.548 95.1347 119.247 95.177 118.938C95.4622 116.853 95.6418 114.747 96.038 112.684C98.1091 101.956 103.394 92.1133 111.191 84.4621C118.988 76.8109 128.927 71.7139 139.689 69.8482C141.723 69.4968 143.78 69.2802 145.827 69.0001H152.153Z" fill="black"/>
<path d="M142.961 134.097C142.835 130.961 142.897 127.836 144.253 124.921C145.831 121.542 148.215 118.95 151.534 117.337C153.776 116.25 155.977 115.18 157.558 113.077C161.347 108.032 159.766 100.405 154.399 97.1637C147.461 92.9637 138.643 98.0058 138.384 106.329C138.294 109.41 136.695 111.659 134.104 112.496C132.89 112.909 131.579 112.922 130.357 112.533C129.134 112.143 128.063 111.371 127.293 110.326C126.426 109.173 125.97 107.751 126.002 106.297C125.983 96.4852 132.565 87.3356 141.644 84.2259C147.23 82.3072 153.324 82.6511 158.67 85.1867C164.015 87.7222 168.206 92.2564 170.379 97.8553C172.551 103.454 172.54 109.691 170.348 115.282C168.155 120.873 163.948 125.391 158.594 127.907C158.095 128.142 157.586 128.353 157.093 128.601C156.521 128.855 156.037 129.279 155.706 129.819C155.375 130.36 155.212 130.99 155.238 131.627C155.238 133.559 155.264 135.491 155.238 137.434C155.174 140.789 153.301 143.205 150.248 143.902C149.847 143.992 149.435 144.02 149.026 143.986C148.182 143.915 147.546 143.477 147.523 142.561C147.5 141.645 147.983 141.088 148.918 140.903C151.457 140.396 152.154 139.467 152.146 136.774C152.146 135.053 152.172 133.342 152.167 131.611C152.167 128.707 153.534 126.714 156.075 125.616C159.232 124.254 161.995 122.39 164.245 119.726C172.302 110.181 169.669 94.9541 158.865 88.8403C147.006 82.1272 132.617 88.6581 129.589 102.158C129.319 103.499 129.164 104.862 129.127 106.231C129.037 108.161 130.367 109.629 132.123 109.684C133.82 109.735 135.223 108.38 135.28 106.488C135.432 102.443 136.731 98.9218 139.751 96.2133C143.7 92.668 148.295 91.5144 153.268 93.2092C158.24 94.904 161.388 98.5047 162.481 103.768C163.126 106.873 162.703 110.11 161.284 112.933C159.865 115.756 157.536 117.992 154.691 119.264C151.731 120.613 149.148 122.332 147.533 125.315C146.451 127.323 145.907 129.588 145.958 131.88C145.981 134.058 145.994 136.236 146.02 138.414C146.035 139.646 145.583 140.28 144.615 140.346C143.646 140.412 143.016 139.818 142.959 138.622C142.907 137.115 142.961 135.602 142.961 134.097Z" fill="black"/>
<path d="M143.001 156.427C143.017 154.712 143.659 153.073 144.787 151.869C145.915 150.665 147.437 149.993 149.02 150C150.612 150.007 152.137 150.698 153.258 151.921C154.379 153.145 155.006 154.801 155 156.525C154.994 158.248 154.356 159.899 153.226 161.114C152.096 162.328 150.567 163.007 148.975 163C148.183 163.001 147.398 162.83 146.666 162.499C145.935 162.167 145.272 161.681 144.716 161.069C144.16 160.458 143.722 159.732 143.427 158.935C143.133 158.138 142.988 157.285 143.001 156.427V156.427ZM146.011 156.443C145.994 156.873 146.058 157.302 146.196 157.705C146.335 158.108 146.547 158.476 146.819 158.789C147.092 159.103 147.419 159.354 147.782 159.528C148.145 159.702 148.537 159.796 148.934 159.804C149.331 159.812 149.726 159.734 150.094 159.575C150.463 159.416 150.799 159.179 151.082 158.877C151.365 158.575 151.59 158.215 151.743 157.818C151.896 157.421 151.974 156.995 151.973 156.565C151.989 156.136 151.926 155.707 151.787 155.304C151.648 154.901 151.436 154.532 151.164 154.219C150.891 153.906 150.564 153.655 150.201 153.481C149.838 153.306 149.446 153.212 149.049 153.204C148.652 153.196 148.258 153.274 147.889 153.433C147.52 153.592 147.184 153.83 146.901 154.132C146.618 154.433 146.393 154.793 146.24 155.19C146.088 155.587 146.009 156.013 146.011 156.443V156.443Z" fill="black"/>
</svg>
