<svg width="251" height="261" viewBox="0 0 251 261" fill="none" xmlns="http://www.w3.org/2000/svg">
<path fill-rule="evenodd" clip-rule="evenodd" d="M250.398 131.656C251.13 183.607 230.258 238.422 172.909 252.707C113.887 267.408 52.8545 235.042 17.2192 189.737C-6.20014 146.405 -3.35849 88.0058 16.5653 53.9406C51.3741 13.5495 112.798 -5.85923 169.533 12.997C224.291 31.196 249.699 82.0366 250.398 131.656Z" fill="#F9EEEC"/>
<path d="M128.211 187C127.53 186.76 126.826 186.576 126.165 186.272C123.535 185.05 121.921 183.025 121.378 180.166C121.331 179.915 121.284 179.664 121.226 179.415C121.191 179.32 121.148 179.228 121.097 179.14C120.191 179.14 119.247 179.14 118.303 179.14C115.801 179.105 113.919 177.343 113.811 174.859C113.761 173.666 113.925 172.465 113.916 171.266C113.909 171.088 113.867 170.912 113.792 170.75C113.717 170.588 113.61 170.443 113.478 170.322C112.872 169.877 112.385 169.291 112.058 168.615C111.73 167.938 111.574 167.192 111.601 166.441C111.601 164.854 111.367 163.226 112.367 161.765C112.487 161.589 112.323 161.18 112.227 160.888C111.294 158.129 110.938 155.44 113.022 152.976C113.211 152.723 113.314 152.415 113.314 152.099C113.334 149.805 113.349 147.504 113.314 145.21C113.288 143.488 112.381 142.287 110.938 141.41C104.864 137.769 100.017 132.398 97.0165 125.984C86.9738 104.776 99.9392 79.5733 123.029 75.382C123.707 75.2563 124.391 75.1365 125.075 75.0371C126.311 74.8617 127.159 75.3849 127.314 76.3933C127.469 77.4016 126.794 78.1177 125.537 78.2872C118.657 79.2196 112.607 81.9378 107.474 86.6288C91.5889 101.14 93.9709 127.06 112.265 138.362C115.255 140.209 116.769 142.682 116.649 146.198C116.582 148.013 116.649 149.831 116.649 151.713H123.625V150.676C123.625 146.876 123.608 143.091 123.625 139.3C123.625 138.111 123.368 137.026 122.535 136.19C119.709 133.355 118.736 129.971 119.08 126.019C119.294 123.596 119.11 121.138 119.127 118.695C119.127 118.084 119.104 117.642 118.385 117.33C118.149 117.183 117.952 116.982 117.81 116.744C117.668 116.505 117.586 116.236 117.569 115.959C117.596 115.447 118.107 114.948 118.446 114.471C118.676 114.147 118.945 113.852 119.247 113.594C119.718 113.2 120.238 112.545 120.708 112.56C121.028 112.608 121.332 112.729 121.599 112.912C121.865 113.095 122.086 113.337 122.246 113.618C122.538 114.202 122.807 114.325 123.368 114.322C127.46 114.308 131.544 114.308 135.62 114.322C136.205 114.322 136.562 114.275 136.828 113.577C137.009 113.097 137.789 112.536 138.271 112.563C138.812 112.595 139.332 113.229 139.832 113.638C140.106 113.873 140.35 114.14 140.56 114.433C140.911 114.904 141.501 115.404 141.489 115.895C141.475 116.421 140.905 116.926 140.569 117.449C140.352 117.803 139.984 118.166 139.984 118.528C139.941 121.953 139.935 125.381 139.967 128.81C139.99 130.827 139.511 132.677 138.099 134.133C135.98 136.319 135.176 138.809 135.416 141.872C135.638 144.772 135.463 147.7 135.463 150.617V151.734H142.439C142.439 149.86 142.495 148.01 142.439 146.166C142.319 142.74 143.775 140.279 146.663 138.455C155.188 133.066 160.21 125.323 161.861 115.366C161.96 114.758 161.984 114.132 162.095 113.524C162.288 112.492 163.019 111.899 163.895 112.013C164.122 112.04 164.341 112.115 164.536 112.233C164.732 112.351 164.9 112.509 165.03 112.697C165.159 112.885 165.247 113.099 165.287 113.324C165.327 113.548 165.319 113.779 165.263 114.001C164.679 116.923 164.275 119.913 163.308 122.71C160.584 130.602 155.56 136.757 148.475 141.168C146.49 142.404 145.567 143.982 145.692 146.306C145.795 148.162 145.692 150.027 145.736 151.886C145.751 152.336 146.028 152.789 146.236 153.221C146.587 153.967 147.203 154.683 147.3 155.443C147.531 157.342 147.791 159.289 146.715 161.092C146.584 161.312 146.715 161.753 146.835 162.048C147.289 163.122 147.522 164.276 147.522 165.441C147.522 166.607 147.289 167.761 146.835 168.835C146.773 169.047 146.648 169.234 146.476 169.373C144.932 170.249 145.055 171.652 145.236 173.099C145.271 173.572 145.271 174.047 145.236 174.52C145.181 177.267 143.342 179.102 140.613 179.132C139.704 179.132 138.798 179.132 137.877 179.132C137.722 179.807 137.623 180.415 137.444 181.002C136.544 183.957 134.568 185.828 131.634 186.719C131.362 186.801 131.093 186.9 130.824 186.991L128.211 187ZM122.398 117.669C122.398 120.483 122.383 123.222 122.398 125.937C122.427 131.537 121.968 130.029 125.198 134.25C126.317 135.656 126.915 137.406 126.89 139.204C126.861 143.003 126.89 146.782 126.89 150.57V151.704H132.169C132.169 148.419 132.362 145.201 132.119 142.015C131.827 138.131 132.8 134.837 135.55 132.063C136.427 131.187 136.676 130.073 136.667 128.848C136.641 125.458 136.667 122.07 136.667 118.683C136.667 118.361 136.632 118.04 136.608 117.666L122.398 117.669ZM129.521 155.08H117.622C114.895 155.08 114.895 155.08 114.901 157.816C114.901 159.57 115.193 159.862 116.918 159.862H141.177C144.208 159.862 144.208 159.862 144.172 156.843C144.172 155.454 143.81 155.089 142.419 155.089C138.117 155.075 133.817 155.071 129.521 155.077V155.08ZM129.535 163.129H117.505C114.889 163.129 114.889 163.129 114.892 165.74C114.892 167.648 115.094 167.847 117.04 167.847H141.212C144.181 167.847 144.181 167.847 144.155 164.889C144.155 163.428 143.836 163.135 142.331 163.135L129.535 163.129ZM129.535 175.864C133.107 175.864 136.679 175.864 140.253 175.864C141.638 175.864 141.963 175.522 141.977 174.11V173.333C141.977 171.322 141.785 171.123 139.815 171.123H120.007C117.055 171.123 117.055 171.123 117.084 174.102C117.084 175.516 117.417 175.855 118.806 175.855C122.381 175.863 125.954 175.865 129.524 175.861L129.535 175.864ZM124.637 179.178C124.929 181.935 127.15 183.831 129.798 183.697C132.286 183.574 134.358 181.549 134.375 179.178H124.637Z" fill="black"/>
<path d="M133.598 75.002C139.089 75.5979 144.36 77.4892 148.978 80.5202C157.941 86.4418 163.29 94.7161 165.026 105.343C165.234 106.6 164.734 107.439 163.738 107.585C162.741 107.731 162.004 107.144 161.803 105.852C160.973 100.124 158.609 94.7281 154.96 90.2355C149.393 83.3933 142.173 79.4534 133.452 78.2843C132.283 78.1265 131.616 77.4075 131.73 76.4459C131.835 75.5486 132.595 74.9582 133.598 75.002Z" fill="black"/>
<path d="M156.787 103.85C156.419 104.218 156.042 104.829 155.498 105.086C154.773 105.425 154.063 105.086 153.642 104.37C153.476 104.048 153.349 103.706 153.265 103.353C151.275 96.9578 147.303 92.2112 141.428 89.0137C140.917 88.7215 140.306 88.2976 140.148 87.8037C139.99 87.3098 140.227 86.5732 140.554 86.1436C141.051 85.4889 141.825 85.559 142.545 85.9214C145.909 87.5978 148.886 89.9566 151.288 92.8477C153.69 95.7387 155.463 99.0985 156.495 102.713C156.556 102.99 156.623 103.271 156.787 103.85Z" fill="black"/>
<path d="M91.0832 120.533C90.8523 120.781 90.4986 121.433 89.9608 121.673C88.2744 122.424 86.5266 123.044 84.7817 123.66C84.5805 123.749 84.3629 123.794 84.143 123.793C83.9231 123.793 83.7059 123.745 83.5055 123.655C83.3051 123.564 83.1259 123.433 82.9797 123.269C82.8335 123.104 82.7235 122.911 82.6568 122.702C82.3266 121.825 82.6861 120.998 83.6681 120.603C85.3809 119.91 87.1082 119.247 88.8531 118.633C90.0105 118.227 91.0598 118.969 91.0832 120.533Z" fill="black"/>
<path d="M169.647 118.499C169.871 118.545 170.093 118.603 170.311 118.671C171.942 119.279 173.576 119.878 175.195 120.515C176.338 120.966 176.75 121.775 176.393 122.713C176.036 123.652 175.186 123.994 174.055 123.59C172.387 122.982 170.726 122.354 169.072 121.705C168.221 121.369 167.829 120.705 168.019 119.794C168.186 118.969 168.753 118.581 169.647 118.499Z" fill="black"/>
<path d="M91.0657 99.074C91.1095 100.559 90.1538 101.392 89.0343 101.026C87.1433 100.407 85.2786 99.6907 83.446 98.9103C82.6247 98.5625 82.312 97.788 82.6773 96.9053C83.0427 96.0226 83.7178 95.6368 84.6005 95.9408C86.4828 96.5896 88.3563 97.2823 90.1859 98.0656C90.6331 98.2585 90.8991 98.8723 91.0657 99.074Z" fill="black"/>
<path d="M169.384 101.374C168.896 100.86 168.3 100.468 168.06 99.9129C167.98 99.7453 167.935 99.5629 167.929 99.3772C167.922 99.1915 167.955 99.0065 168.024 98.8339C168.093 98.6613 168.197 98.505 168.329 98.3747C168.462 98.2445 168.62 98.1432 168.794 98.0774C170.703 97.2911 172.632 96.5517 174.59 95.894C174.763 95.829 174.949 95.8022 175.134 95.8154C175.319 95.8286 175.499 95.8816 175.661 95.9706C175.824 96.0597 175.965 96.1828 176.076 96.3314C176.187 96.4801 176.264 96.651 176.303 96.8323C176.425 97.4168 176.265 98.4632 175.905 98.6356C173.862 99.6352 171.723 100.424 169.384 101.374Z" fill="black"/>
<path d="M84.5158 108.196C85.4277 108.196 86.3396 108.164 87.2486 108.196C88.2599 108.243 88.8473 108.836 88.8766 109.748C88.8977 109.959 88.8746 110.172 88.8088 110.374C88.7429 110.576 88.6358 110.762 88.4942 110.92C88.3526 111.078 88.1797 111.205 87.9863 111.293C87.793 111.38 87.5836 111.426 87.3713 111.429C85.4072 111.496 83.4373 111.499 81.4732 111.429C81.2613 111.421 81.0532 111.37 80.8622 111.278C80.6712 111.186 80.5016 111.055 80.364 110.893C80.2265 110.732 80.1242 110.543 80.0635 110.34C80.0029 110.137 79.9853 109.923 80.0118 109.713C80.0936 108.781 80.6285 108.252 81.5667 108.205C82.5488 108.167 83.5337 108.205 84.5187 108.205L84.5158 108.196Z" fill="black"/>
<path d="M174.642 108.196C175.554 108.196 176.466 108.167 177.375 108.196C178.389 108.24 178.994 108.818 179.044 109.716C179.066 109.936 179.041 110.158 178.971 110.367C178.902 110.577 178.788 110.77 178.639 110.933C178.49 111.096 178.308 111.225 178.106 111.313C177.903 111.401 177.684 111.445 177.463 111.443C175.569 111.504 173.675 111.504 171.781 111.443C171.56 111.45 171.34 111.41 171.135 111.326C170.93 111.242 170.746 111.115 170.594 110.954C170.442 110.794 170.325 110.603 170.252 110.394C170.179 110.185 170.152 109.963 170.171 109.742C170.203 108.798 170.819 108.222 171.91 108.184C172.822 108.155 173.734 108.184 174.642 108.184V108.196Z" fill="black"/>
</svg>
