<svg width="251" height="250" viewBox="0 0 251 250" fill="none" xmlns="http://www.w3.org/2000/svg">
<path d="M31.529 45.6446C54.3913 7.52883 104.323 0.330866 120.605 0C187.73 0 229.87 33.1961 245.218 90.3264C261.727 151.775 242.372 250 144.942 250C83.6353 250 48.4594 229.533 14.897 184.866C-18.6655 140.199 14.6682 73.7548 31.529 45.6446Z" fill="#E9F1F2"/>
<path d="M76.011 85.9233C76.5539 83.7041 77.2408 81.5504 78.7067 79.7369C81.1011 76.7718 84.1606 75.0509 87.9857 74.8113C89.9701 74.686 90.4697 75.1979 90.4724 77.2619C90.4724 81.8671 90.4724 86.4697 90.4724 91.0695V92.4881C90.9176 92.5126 91.2868 92.5507 91.6777 92.5507C107.785 92.5507 123.893 92.5562 140 92.5671C140.336 92.5786 140.671 92.5161 140.98 92.3839C141.29 92.2517 141.567 92.053 141.792 91.8019C148.34 85.1999 154.901 78.6106 161.476 72.034C164.178 69.3275 166.879 69.322 169.58 72.0176C171.013 73.4526 172.455 74.8766 173.869 76.3252C176.147 78.6587 176.155 81.4986 173.869 83.8321C171.336 86.4161 168.768 88.9647 166.216 91.5296C165.964 91.7829 165.725 92.0443 165.312 92.4826C165.855 92.5126 166.224 92.5507 166.591 92.5507C169.771 92.5507 172.951 92.5507 176.13 92.5507C179.165 92.5507 179.355 92.744 179.355 95.8427V127.112L179.597 127.259L183.189 123.591C183.444 123.333 183.702 123.082 183.954 122.823C184.524 122.241 185.168 121.887 185.99 122.243C186.813 122.6 187.003 123.286 187.003 124.111C187.003 131.975 187.003 139.839 187.003 147.702V178.364C187.003 180.578 186.609 180.986 184.448 180.986H130.805C130.372 181.015 129.938 180.993 129.51 180.921C128.28 180.622 127.903 179.168 128.826 178.163C129.828 177.074 130.906 176.05 131.956 175.002C133.949 173.011 135.944 171.023 138.178 168.796H136.647C120.721 168.796 104.789 168.796 88.8517 168.796C83.729 168.796 79.8632 166.618 77.4498 162.084C76.7386 160.742 76.4725 159.163 76.0001 157.69L76.011 85.9233ZM153.351 84.6245C153.08 84.9594 152.852 85.2943 152.572 85.5747C145.602 92.5761 138.627 99.573 131.647 106.565C131.318 106.892 130.957 107.366 130.561 107.415C129.985 107.491 129.174 107.439 128.823 107.083C128.473 106.726 128.446 105.923 128.503 105.335C128.541 104.978 128.981 104.637 129.285 104.333C131.781 101.815 134.283 99.3016 136.791 96.7929C137.033 96.5479 137.258 96.2865 137.622 95.8971H90.4669V97.2422C90.4669 106.956 90.4669 116.667 90.4669 126.377C90.4862 126.882 90.4378 127.387 90.3231 127.88C90.1032 128.68 89.5086 129.051 88.6942 128.969C88.3459 128.963 88.0116 128.83 87.7538 128.595C87.496 128.36 87.3323 128.039 87.2934 127.692C87.2327 127.224 87.21 126.753 87.2256 126.281C87.2256 110.734 87.2256 95.1855 87.2256 79.6362C87.2256 79.1869 87.1875 78.7377 87.1658 78.2285C86.8156 78.2802 86.6012 78.2966 86.3976 78.3456C82.1029 79.4129 79.2877 83.2957 79.285 88.1833C79.285 107.864 79.285 127.545 79.285 147.226V148.407C81.3482 146.352 83.5199 144.952 86.1451 144.489C87.1034 144.32 87.2608 143.904 87.2473 143.049C87.2011 140.114 87.2174 137.178 87.2473 134.243C87.2473 133.029 87.8798 132.318 88.8408 132.307C89.7448 132.307 90.4697 133.001 90.4697 134.107C90.5041 137.95 90.5041 141.792 90.4697 145.633C90.4697 146.776 89.8371 147.299 88.6915 147.427C87.9724 147.471 87.2569 147.562 86.5496 147.699C82.2712 148.742 78.875 153.183 79.3338 157.091C79.9338 162.193 83.5444 165.485 88.6834 165.491C105.991 165.512 123.297 165.507 140.603 165.474C141.12 165.448 141.611 165.239 141.99 164.886C143.969 162.98 145.883 161.001 147.84 159.07C148.63 158.291 149.602 158.237 150.262 158.858C150.992 159.544 150.957 160.47 150.156 161.357C149.963 161.572 149.751 161.771 149.545 161.975L134.809 176.769C134.551 177.041 134.31 177.313 133.995 177.651H183.702V169.918H182.255C181.75 169.918 181.242 169.94 180.737 169.896C179.529 169.793 178.728 168.649 179.331 167.693C179.654 167.184 180.436 166.819 181.068 166.694C181.921 166.525 182.828 166.651 183.696 166.651V161.749C182.73 161.749 181.831 161.79 180.935 161.749C179.779 161.684 179.165 161.069 179.176 160.097C179.187 159.125 179.812 158.547 180.973 158.504C181.867 158.474 182.762 158.504 183.702 158.504V153.554C182.784 153.554 181.924 153.573 181.063 153.554C179.874 153.524 179.163 152.906 179.163 151.92C179.163 150.934 179.855 150.319 181.063 150.286C181.948 150.267 182.836 150.286 183.683 150.286V145.439C183.624 145.409 183.562 145.386 183.498 145.369C182.705 145.369 181.91 145.369 181.115 145.336C179.869 145.306 179.214 144.767 179.182 143.77C179.155 142.73 179.844 142.112 181.125 142.074C181.978 142.05 182.833 142.074 183.68 142.074V127.915L183.447 127.771C183.247 128.074 183.027 128.362 182.787 128.634C177.942 133.512 173.09 138.384 168.23 143.25C163.965 147.531 159.699 151.81 155.433 156.089C154.54 156.982 153.533 157.104 152.857 156.445C152.097 155.721 152.192 154.757 153.128 153.78C153.302 153.597 153.487 153.423 153.671 153.235C160.911 145.974 168.145 138.725 175.373 131.488C175.634 131.247 175.839 130.951 175.973 130.621C176.107 130.292 176.168 129.937 176.149 129.582C176.126 118.781 176.12 107.98 176.133 97.1796V95.8181H174.797C170.896 95.8181 166.993 95.8426 163.091 95.7991C162.72 95.7862 162.35 95.8559 162.008 96.0033C161.667 96.1506 161.362 96.3719 161.115 96.6513C151.649 106.181 142.079 115.592 132.738 125.241C129.679 128.397 126.432 130.864 122.132 131.88C120.902 132.168 119.734 132.726 118.537 133.159L118.583 133.353H121.811C131.132 133.353 140.452 133.353 149.773 133.353C151.13 133.353 151.899 133.982 151.885 135.008C151.871 136.035 151.122 136.612 149.846 136.612C135.071 136.612 120.294 136.612 105.515 136.612C104.296 136.612 103.595 136.027 103.563 135.052C103.525 134.023 104.242 133.377 105.501 133.355C106.761 133.334 108.034 133.282 109.302 133.372C110.246 133.44 110.659 133.149 110.988 132.215C112.527 127.659 114.145 123.128 115.763 118.6C115.94 118.055 116.227 117.551 116.607 117.122C118.955 114.709 121.342 112.338 123.725 109.963C123.978 109.713 124.303 109.364 124.594 109.364C125.159 109.364 125.9 109.408 126.239 109.756C126.578 110.105 126.643 110.846 126.592 111.409C126.559 111.771 126.141 112.128 125.843 112.433C123.861 114.437 121.866 116.425 119.96 118.336L127.265 125.764L160.811 92.0878L153.351 84.6245ZM161.224 76.8208L168.7 84.325C169.699 83.3393 170.809 82.3155 171.833 81.2127C172.533 80.4585 172.487 79.579 171.732 78.7839C170.131 77.1194 168.502 75.4857 166.846 73.8828C166.032 73.0932 165.157 73.0796 164.335 73.8256C163.238 74.8086 162.206 75.865 161.224 76.8208ZM166.015 86.9552L158.653 79.6035L155.99 82.2474L163.32 89.6509C164.226 88.7496 165.168 87.8075 166.015 86.9552ZM118.13 121.734C116.181 125.838 116.194 125.938 119.056 128.699C119.135 128.776 119.197 128.893 119.289 128.923C119.539 129.004 119.832 129.165 120.052 129.094C121.409 128.645 122.767 128.141 124.018 127.695L118.13 121.734Z" fill="black"/>
<path d="M176.679 167.428C173.897 167.428 171.114 167.428 168.334 167.428C167.487 167.428 166.706 167.297 166.334 166.445C165.945 165.552 166.374 164.86 167.012 164.223C172.691 158.543 178.363 152.854 184.028 147.156C184.653 146.527 185.318 146.054 186.23 146.443C187.142 146.832 187.245 147.668 187.245 148.539C187.245 154.051 187.245 159.559 187.245 165.067C187.245 166.87 186.702 167.417 184.921 167.42C182.171 167.428 179.424 167.428 176.679 167.428ZM183.925 152.4L172.268 164.095H183.925V152.4Z" fill="black"/>
</svg>
